<?xml version="1.0" encoding="UTF-8" standalone="no"?>
<!-- Created with Inkscape (http://www.inkscape.org/) -->

<svg
   xmlns:dc="http://purl.org/dc/elements/1.1/"
   xmlns:cc="http://creativecommons.org/ns#"
   xmlns:rdf="http://www.w3.org/1999/02/22-rdf-syntax-ns#"
   xmlns:svg="http://www.w3.org/2000/svg"
   xmlns="http://www.w3.org/2000/svg"
   xmlns:sodipodi="http://sodipodi.sourceforge.net/DTD/sodipodi-0.dtd"
   xmlns:inkscape="http://www.inkscape.org/namespaces/inkscape"
   width="32"
   height="32"
   viewBox="0 0 32 32"
   version="1.1"
   id="svg8"
   inkscape:version="0.92.1 r15371"
   sodipodi:docname="logo.svg"
   inkscape:export-filename="C:\Users\wayfarerx\Pictures\wx32.png"
   inkscape:export-xdpi="96"
   inkscape:export-ydpi="96">
  <defs
     id="defs2" />
  <sodipodi:namedview
     id="base"
     pagecolor="#ffffff"
     bordercolor="#666666"
     borderopacity="1.0"
     inkscape:pageopacity="0.0"
     inkscape:pageshadow="2"
     inkscape:zoom="2.5163058"
     inkscape:cx="16"
     inkscape:cy="16"
     inkscape:document-units="px"
     inkscape:current-layer="layer1"
     showgrid="false"
     units="px"
     inkscape:pagecheckerboard="false"
     borderlayer="false"
     inkscape:window-width="2560"
     inkscape:window-height="1080"
     inkscape:window-x="-8"
     inkscape:window-y="-31"
     inkscape:window-maximized="0"
     showguides="true"
     inkscape:guide-bbox="true"
     inkscape:measure-start="1.01866,16.0176"
     inkscape:measure-end="2.59934,16.0527">
    <inkscape:grid
       type="xygrid"
       id="grid5889" />
  </sodipodi:namedview>
  <metadata
     id="metadata5">
    <rdf:RDF>
      <cc:Work
         rdf:about="">
        <dc:format>image/svg+xml</dc:format>
        <dc:type
           rdf:resource="http://purl.org/dc/dcmitype/StillImage" />
        <dc:title />
      </cc:Work>
    </rdf:RDF>
  </metadata>
  <g
     inkscape:label="Current"
     inkscape:groupmode="layer"
     id="layer1"
     transform="translate(0,-1394.6)">
    <path
       style="fill:#424242;fill-opacity:1;stroke:none;stroke-width:0.83155733;stroke-miterlimit:4;stroke-dasharray:none;stroke-opacity:1"
       d="M 5.3925781 5.3925781 L 7.9941406 10.027344 A 10 10 0 0 1 10.025391 7.9941406 L 5.3925781 5.3925781 z "
       transform="translate(0,1394.6)"
       id="rect5460" />
    <path
       style="fill:#424242;fill-opacity:1;stroke:none;stroke-width:0.83155733;stroke-miterlimit:4;stroke-dasharray:none;stroke-opacity:1"
       d="M 24.005859 21.972656 A 10 10 0 0 1 21.974609 24.005859 L 26.605469 26.605469 L 24.005859 21.972656 z "
       transform="translate(0,1394.6)"
       id="rect5464" />
    <path
       style="fill:#424242;fill-opacity:1;stroke:none;stroke-width:0.83154982;stroke-miterlimit:4;stroke-dasharray:none;stroke-opacity:1"
       d="M 7.9941406 21.974609 L 5.3925781 26.607422 L 10.027344 24.005859 A 10 10 0 0 1 7.9941406 21.974609 z "
       transform="translate(0,1394.6)"
       id="rect5462" />
    <path
       style="fill:#424242;fill-opacity:1;stroke:none;stroke-width:0.83154982;stroke-miterlimit:4;stroke-dasharray:none;stroke-opacity:1"
       d="M 26.607422 5.3925781 L 21.972656 7.9941406 A 10 10 0 0 1 24.005859 10.025391 L 26.607422 5.3925781 z "
       transform="translate(0,1394.6)"
       id="rect5466" />
    <path
       style="fill:#424242;fill-opacity:1;stroke:none;stroke-width:1;stroke-miterlimit:4;stroke-dasharray:none;stroke-opacity:1"
       d="M 16 0 L 13.761719 6.265625 A 10 10 0 0 1 16 6 A 10 10 0 0 1 18.236328 6.2636719 L 16 0 z "
       transform="translate(0,1394.6)"
       id="rect5406" />
    <path
       style="fill:#424242;fill-opacity:1;stroke:none;stroke-width:1;stroke-miterlimit:4;stroke-dasharray:none;stroke-opacity:1"
       d="M 6.2636719 13.763672 L 0 16 L 6.265625 18.238281 A 10 10 0 0 1 6 16 A 10 10 0 0 1 6.2636719 13.763672 z "
       transform="translate(0,1394.6)"
       id="rect5414" />
    <path
       style="fill:#424242;fill-opacity:1;stroke:none;stroke-width:1;stroke-miterlimit:4;stroke-dasharray:none;stroke-opacity:1"
       d="M 18.238281 25.732422 A 10 10 0 0 1 16 26 A 10 10 0 0 1 13.763672 25.736328 L 16 32 L 18.238281 25.732422 z "
       transform="translate(0,1394.6)"
       id="rect5412" />
    <path
       style="fill:#424242;fill-opacity:1;stroke:none;stroke-width:1;stroke-miterlimit:4;stroke-dasharray:none;stroke-opacity:1"
       d="M 25.732422 13.761719 A 10 10 0 0 1 26 16 A 10 10 0 0 1 25.736328 18.236328 L 32 16 L 25.732422 13.761719 z "
       transform="translate(0,1394.6)"
       id="rect5416" />
    <g
       id="g5277"
       transform="matrix(0.0352771,0,0,0.0352771,14.178503,1361.8826)"
       style="display:inline;fill:#424242;fill-opacity:1;stroke:#424242;stroke-width:12.04747581;stroke-miterlimit:4;stroke-dasharray:none;stroke-opacity:1">
      <text
         id="text5271"
         y="1507.933"
         x="-156.49165"
         style="font-style:normal;font-weight:normal;font-size:40px;line-height:1.25;font-family:sans-serif;letter-spacing:0px;word-spacing:0px;fill:#424242;fill-opacity:1;stroke:#424242;stroke-width:12.04747581;stroke-miterlimit:4;stroke-dasharray:none;stroke-opacity:1"
         xml:space="preserve"><tspan
           dx="0"
           style="font-style:normal;font-variant:normal;font-weight:normal;font-stretch:normal;font-size:386.66665649px;font-family:DragonForcE;-inkscape-font-specification:DragonForcE;letter-spacing:-88.79994965px;fill:#424242;fill-opacity:1;stroke:#424242;stroke-width:12.04747581;stroke-miterlimit:4;stroke-dasharray:none;stroke-opacity:1"
           y="1507.933"
           x="-156.49165"
           id="tspan5269"
           sodipodi:role="line">V</tspan></text>
      <text
         xml:space="preserve"
         style="font-style:normal;font-weight:normal;font-size:40px;line-height:1.25;font-family:sans-serif;letter-spacing:0px;word-spacing:0px;fill:#424242;fill-opacity:1;stroke:#424242;stroke-width:12.04747581;stroke-miterlimit:4;stroke-dasharray:none;stroke-opacity:1"
         x="-48.491539"
         y="1507.933"
         id="text5275"><tspan
           sodipodi:role="line"
           id="tspan5273"
           x="-48.491539"
           y="1507.933"
           style="font-style:normal;font-variant:normal;font-weight:normal;font-stretch:normal;font-size:386.66665649px;font-family:DragonForcE;-inkscape-font-specification:DragonForcE;letter-spacing:-88.79994965px;fill:#424242;fill-opacity:1;stroke:#424242;stroke-width:12.04747581;stroke-miterlimit:4;stroke-dasharray:none;stroke-opacity:1"
           dx="0">V</tspan></text>
    </g>
    <path
       style="fill:#424242;fill-opacity:1;stroke:none;stroke-width:0.34738213;stroke-miterlimit:4;stroke-dasharray:none;stroke-opacity:1"
       d="m 14.618705,1395.6678 a 15,15 0 0 0 -8.4659461,3.6488 l 1.4086892,0.7899 a 13.5,13.5 0 0 1 6.4910189,-2.8532 z m -9.8953512,5.1003 a 15,15 0 0 0 -3.6487818,8.4494 l 1.5854657,-0.5663 a 13.5,13.5 0 0 1 2.8505247,-6.4827 z M 2.655895,1412.55 1.070429,1411.9837 a 15,15 0 0 0 3.654306,8.4466 l 0.7816839,-1.3921 A 13.5,13.5 0 0 1 2.655895,1412.55 Z m 11.393811,11.3938 a 13.5,13.5 0 0 1 -6.49102,-2.8478 l -1.4004031,0.7845 a 15,15 0 0 0 8.4548981,3.646 z"
       id="path5542"
       inkscape:connector-curvature="0" />
    <path
       style="fill:#424242;fill-opacity:1;stroke:none;stroke-width:0.32898635;stroke-miterlimit:4;stroke-dasharray:none;stroke-opacity:1"
       d="m 26.240392,1402.6132 -0.816211,1.4515 a 11.5,11.5 45 0 1 1.740146,3.8035 l 1.646233,0.5883 a 13,13 0 0 0 -2.570168,-5.8433 z m -2.266332,-2.247 a 13,13 0 0 0 -5.836394,-2.5826 l 0.59386,1.6656 a 11.5,11.5 45 0 1 3.804842,1.7249 z m 4.828213,12.3771 -1.657281,0.5911 a 11.5,11.5 45 0 1 -1.723573,3.7924 l 0.805162,1.435 a 13,13 0 0 0 2.575692,-5.8185 z m -4.840643,8.0834 -1.437692,-0.8079 a 11.5,11.5 45 0 1 -3.793794,1.7332 l -0.586953,1.6504 a 13,13 0 0 0 5.818439,-2.5757 z"
       id="path5547"
       inkscape:connector-curvature="0" />
  </g>
  <g
     inkscape:groupmode="layer"
     id="layer3"
     inkscape:label="Old"
     style="display:none"
     sodipodi:insensitive="true">
    <g
       id="g5849"
       transform="translate(-108.02378,-1394.6321)">
      <g
         id="g5829">
        <g
           transform="matrix(0.02080444,0,0,0.02080444,0.02219008,1396.8982)"
           id="g5809">
          <g
             id="g5793">
            <g
               id="g5785">
              <path
                 style="fill:#424242;fill-opacity:1;stroke:none;stroke-width:1px;stroke-linecap:butt;stroke-linejoin:miter;stroke-opacity:1"
                 d="m 768,-62.40001 -144,577 144,144 z"
                 id="path5781"
                 inkscape:connector-curvature="0"
                 sodipodi:nodetypes="cccc" />
              <path
                 sodipodi:nodetypes="cccc"
                 inkscape:connector-curvature="0"
                 id="path5783"
                 d="m 768,-62.40001 144,577 -144,144 z"
                 style="fill:#bdbdbd;fill-opacity:1;stroke:none;stroke-width:1px;stroke-linecap:butt;stroke-linejoin:miter;stroke-opacity:1" />
            </g>
            <g
               transform="rotate(-180,768,658.59999)"
               id="g5791">
              <path
                 sodipodi:nodetypes="cccc"
                 inkscape:connector-curvature="0"
                 id="path5787"
                 d="m 768,-62.40001 -144,577 144,144 z"
                 style="fill:#424242;fill-opacity:1;stroke:none;stroke-width:1px;stroke-linecap:butt;stroke-linejoin:miter;stroke-opacity:1" />
              <path
                 style="fill:#bdbdbd;fill-opacity:1;stroke:none;stroke-width:1px;stroke-linecap:butt;stroke-linejoin:miter;stroke-opacity:1"
                 d="m 768,-62.40001 144,577 -144,144 z"
                 id="path5789"
                 inkscape:connector-curvature="0"
                 sodipodi:nodetypes="cccc" />
            </g>
          </g>
          <g
             id="g5807"
             transform="rotate(-90,768,658.59999)">
            <g
               id="g5799">
              <path
                 sodipodi:nodetypes="cccc"
                 inkscape:connector-curvature="0"
                 id="path5795"
                 d="m 768,-62.40001 -144,577 144,144 z"
                 style="fill:#424242;fill-opacity:1;stroke:none;stroke-width:1px;stroke-linecap:butt;stroke-linejoin:miter;stroke-opacity:1" />
              <path
                 style="fill:#bdbdbd;fill-opacity:1;stroke:none;stroke-width:1px;stroke-linecap:butt;stroke-linejoin:miter;stroke-opacity:1"
                 d="m 768,-62.40001 144,577 -144,144 z"
                 id="path5797"
                 inkscape:connector-curvature="0"
                 sodipodi:nodetypes="cccc" />
            </g>
            <g
               id="g5805"
               transform="rotate(-180,768,658.59999)">
              <path
                 style="fill:#424242;fill-opacity:1;stroke:none;stroke-width:1px;stroke-linecap:butt;stroke-linejoin:miter;stroke-opacity:1"
                 d="m 768,-62.40001 -144,577 144,144 z"
                 id="path5801"
                 inkscape:connector-curvature="0"
                 sodipodi:nodetypes="cccc" />
              <path
                 sodipodi:nodetypes="cccc"
                 inkscape:connector-curvature="0"
                 id="path5803"
                 d="m 768,-62.40001 144,577 -144,144 z"
                 style="fill:#bdbdbd;fill-opacity:1;stroke:none;stroke-width:1px;stroke-linecap:butt;stroke-linejoin:miter;stroke-opacity:1" />
            </g>
          </g>
        </g>
        <g
           id="g5827">
          <g
             id="g5813"
             transform="matrix(0.0110957,-0.0110957,0.0110957,0.0110957,-0.8291261,1410.8138)"
             style="fill:#424242;fill-opacity:1">
            <path
               sodipodi:nodetypes="ccccc"
               inkscape:connector-curvature="0"
               id="path5811"
               d="m 912,514.59999 -144,-577 -144,577 144,144 z"
               style="fill:#424242;fill-opacity:1;stroke:none;stroke-width:1px;stroke-linecap:butt;stroke-linejoin:miter;stroke-opacity:1" />
          </g>
          <g
             style="fill:#424242;fill-opacity:1"
             transform="matrix(-0.0110957,-0.0110957,-0.0110957,0.0110957,32.829126,1410.8138)"
             id="g5817">
            <path
               style="fill:#424242;fill-opacity:1;stroke:none;stroke-width:1px;stroke-linecap:butt;stroke-linejoin:miter;stroke-opacity:1"
               d="m 912,514.59999 -144,-577 -144,577 144,144 z"
               id="path5815"
               inkscape:connector-curvature="0"
               sodipodi:nodetypes="ccccc" />
          </g>
          <g
             style="fill:#424242;fill-opacity:1"
             transform="matrix(0.0110957,0.0110957,0.0110957,-0.0110957,-0.8291261,1410.3861)"
             id="g5821">
            <path
               style="fill:#424242;fill-opacity:1;stroke:none;stroke-width:1px;stroke-linecap:butt;stroke-linejoin:miter;stroke-opacity:1"
               d="m 912,514.59999 -144,-577 -144,577 144,144 z"
               id="path5819"
               inkscape:connector-curvature="0"
               sodipodi:nodetypes="ccccc" />
          </g>
          <g
             id="g5825"
             transform="matrix(-0.0110957,0.0110957,-0.0110957,-0.0110957,32.829126,1410.3861)"
             style="fill:#424242;fill-opacity:1">
            <path
               sodipodi:nodetypes="ccccc"
               inkscape:connector-curvature="0"
               id="path5823"
               d="m 912,514.59999 -144,-577 -144,577 144,144 z"
               style="fill:#424242;fill-opacity:1;stroke:none;stroke-width:1px;stroke-linecap:butt;stroke-linejoin:miter;stroke-opacity:1" />
          </g>
        </g>
      </g>
      <circle
         style="fill:#ffffff;fill-opacity:1;stroke:none;stroke-width:15.7422514;stroke-miterlimit:4;stroke-dasharray:none;stroke-opacity:1"
         id="circle5831"
         cx="16"
         cy="1410.6001"
         r="10" />
      <path
         style="fill:#424242;fill-opacity:1;stroke:none;stroke-width:15.40857029;stroke-miterlimit:4;stroke-dasharray:none;stroke-opacity:1"
         d="m 17.009766,1.0351562 0.255859,1.0292969 A 14,14 0 0 1 29.935547,14.734375 l 1.013672,0.253906 A 15,15 0 0 0 17.009766,1.0351562 Z m 13.9375,15.9785158 -1.03125,0.257812 A 14,14 0 0 1 17.267578,29.931641 l -0.255859,1.017578 A 15,15 0 0 0 30.947266,17.013672 Z"
         transform="translate(0,1394.6)"
         id="path5833"
         inkscape:connector-curvature="0" />
      <path
         style="fill:#424242;fill-opacity:1;stroke:none;stroke-width:15.27945328;stroke-miterlimit:4;stroke-dasharray:none;stroke-opacity:1"
         d="M 14.472656,3.1152344 A 13,13 0 0 0 7.5820312,6.1386719 L 8.4902344,6.6835938 A 12,12 0 0 1 14.214844,4.1484375 Z M 6.1464844,7.59375 A 13,13 0 0 0 3.1074219,14.474609 L 4.1503906,14.212891 A 12,12 0 0 1 6.6835938,8.4902344 Z m -3.0273438,9.935547 a 13,13 0 0 0 3.0273438,6.873047 l 0.546875,-0.908203 a 12,12 0 0 1 -2.53125,-5.705079 z m 5.375,7.785156 -0.9023437,0.541016 a 13,13 0 0 0 6.8828121,3.037109 L 14.214844,27.851562 A 12,12 0 0 1 8.4941406,25.314453 Z"
         transform="translate(0,1394.6)"
         id="path5835"
         inkscape:connector-curvature="0" />
      <path
         style="fill:#bdbdbd;fill-opacity:1;stroke:none;stroke-width:14.91973972;stroke-miterlimit:4;stroke-dasharray:none;stroke-opacity:1"
         d="M 16,5 A 11,11 0 0 0 5,16 11,11 0 0 0 16,27 11,11 0 0 0 27,16 11,11 0 0 0 16,5 Z m 0,1 A 10,10 0 0 1 26,16 10,10 0 0 1 16,26 10,10 0 0 1 6,16 10,10 0 0 1 16,6 Z"
         transform="translate(0,1394.6)"
         id="path5837"
         inkscape:connector-curvature="0" />
      <g
         id="g5847"
         transform="matrix(0.02713623,0,0,0.02713623,14.977128,1373.0533)"
         style="fill:#424242;fill-opacity:1;stroke:none">
        <text
           id="text5841"
           y="1507.933"
           x="-156.49165"
           style="font-style:normal;font-weight:normal;font-size:40px;line-height:1.25;font-family:sans-serif;letter-spacing:0px;word-spacing:0px;fill:#424242;fill-opacity:1;stroke:none;stroke-width:1"
           xml:space="preserve"><tspan
             dx="0"
             style="font-style:normal;font-variant:normal;font-weight:normal;font-stretch:normal;font-size:386.66665649px;font-family:DragonForcE;-inkscape-font-specification:DragonForcE;letter-spacing:-88.79994965px;fill:#424242;fill-opacity:1;stroke:none;stroke-width:1"
             y="1507.933"
             x="-156.49165"
             id="tspan5839"
             sodipodi:role="line">V</tspan></text>
        <text
           xml:space="preserve"
           style="font-style:normal;font-weight:normal;font-size:40px;line-height:1.25;font-family:sans-serif;letter-spacing:0px;word-spacing:0px;fill:#424242;fill-opacity:1;stroke:none;stroke-width:1"
           x="-48.491539"
           y="1507.933"
           id="text5845"><tspan
             sodipodi:role="line"
             id="tspan5843"
             x="-48.491539"
             y="1507.933"
             style="font-style:normal;font-variant:normal;font-weight:normal;font-stretch:normal;font-size:386.66665649px;font-family:DragonForcE;-inkscape-font-specification:DragonForcE;letter-spacing:-88.79994965px;fill:#424242;fill-opacity:1;stroke:none;stroke-width:1"
             dx="0">V</tspan></text>
      </g>
    </g>
    <g
       transform="translate(-107.52977,-1394.632)"
       id="g6610">
      <g
         transform="translate(34)"
         id="g4752">
        <g
           id="g4689"
           transform="matrix(0.02080444,0,0,0.02080444,0.02219008,1396.8982)">
          <g
             id="g4645">
            <g
               id="g4567">
              <path
                 sodipodi:nodetypes="cccc"
                 inkscape:connector-curvature="0"
                 id="path4485"
                 d="m 768,-62.40001 -144,577 144,144 z"
                 style="fill:#424242;fill-opacity:1;stroke:none;stroke-width:1px;stroke-linecap:butt;stroke-linejoin:miter;stroke-opacity:1" />
              <path
                 style="fill:#bdbdbd;fill-opacity:1;stroke:none;stroke-width:1px;stroke-linecap:butt;stroke-linejoin:miter;stroke-opacity:1"
                 d="m 768,-62.40001 144,577 -144,144 z"
                 id="path4563"
                 inkscape:connector-curvature="0"
                 sodipodi:nodetypes="cccc" />
            </g>
            <g
               id="g4573"
               transform="rotate(-180,768,658.59999)">
              <path
                 style="fill:#424242;fill-opacity:1;stroke:none;stroke-width:1px;stroke-linecap:butt;stroke-linejoin:miter;stroke-opacity:1"
                 d="m 768,-62.40001 -144,577 144,144 z"
                 id="path4569"
                 inkscape:connector-curvature="0"
                 sodipodi:nodetypes="cccc" />
              <path
                 sodipodi:nodetypes="cccc"
                 inkscape:connector-curvature="0"
                 id="path4571"
                 d="m 768,-62.40001 144,577 -144,144 z"
                 style="fill:#bdbdbd;fill-opacity:1;stroke:none;stroke-width:1px;stroke-linecap:butt;stroke-linejoin:miter;stroke-opacity:1" />
            </g>
          </g>
          <g
             transform="rotate(-90,768,658.59999)"
             id="g4595">
            <g
               id="g4587">
              <path
                 style="fill:#424242;fill-opacity:1;stroke:none;stroke-width:1px;stroke-linecap:butt;stroke-linejoin:miter;stroke-opacity:1"
                 d="m 768,-62.40001 -144,577 144,144 z"
                 id="path4583"
                 inkscape:connector-curvature="0"
                 sodipodi:nodetypes="cccc" />
              <path
                 sodipodi:nodetypes="cccc"
                 inkscape:connector-curvature="0"
                 id="path4585"
                 d="m 768,-62.40001 144,577 -144,144 z"
                 style="fill:#bdbdbd;fill-opacity:1;stroke:none;stroke-width:1px;stroke-linecap:butt;stroke-linejoin:miter;stroke-opacity:1" />
            </g>
            <g
               transform="rotate(-180,768,658.59999)"
               id="g4593">
              <path
                 sodipodi:nodetypes="cccc"
                 inkscape:connector-curvature="0"
                 id="path4589"
                 d="m 768,-62.40001 -144,577 144,144 z"
                 style="fill:#424242;fill-opacity:1;stroke:none;stroke-width:1px;stroke-linecap:butt;stroke-linejoin:miter;stroke-opacity:1" />
              <path
                 style="fill:#bdbdbd;fill-opacity:1;stroke:none;stroke-width:1px;stroke-linecap:butt;stroke-linejoin:miter;stroke-opacity:1"
                 d="m 768,-62.40001 144,577 -144,144 z"
                 id="path4591"
                 inkscape:connector-curvature="0"
                 sodipodi:nodetypes="cccc" />
            </g>
          </g>
        </g>
        <g
           id="g4726">
          <g
             style="fill:#424242;fill-opacity:1"
             transform="matrix(0.0110957,-0.0110957,0.0110957,0.0110957,-0.8291261,1410.8138)"
             id="g4637">
            <path
               style="fill:#424242;fill-opacity:1;stroke:none;stroke-width:1px;stroke-linecap:butt;stroke-linejoin:miter;stroke-opacity:1"
               d="m 912,514.59999 -144,-577 -144,577 144,144 z"
               id="path4635"
               inkscape:connector-curvature="0"
               sodipodi:nodetypes="ccccc" />
          </g>
          <g
             id="g4708"
             transform="matrix(-0.0110957,-0.0110957,-0.0110957,0.0110957,32.829126,1410.8138)"
             style="fill:#424242;fill-opacity:1">
            <path
               sodipodi:nodetypes="ccccc"
               inkscape:connector-curvature="0"
               id="path4706"
               d="m 912,514.59999 -144,-577 -144,577 144,144 z"
               style="fill:#424242;fill-opacity:1;stroke:none;stroke-width:1px;stroke-linecap:butt;stroke-linejoin:miter;stroke-opacity:1" />
          </g>
          <g
             id="g4712"
             transform="matrix(0.0110957,0.0110957,0.0110957,-0.0110957,-0.8291261,1410.3861)"
             style="fill:#424242;fill-opacity:1">
            <path
               sodipodi:nodetypes="ccccc"
               inkscape:connector-curvature="0"
               id="path4710"
               d="m 912,514.59999 -144,-577 -144,577 144,144 z"
               style="fill:#424242;fill-opacity:1;stroke:none;stroke-width:1px;stroke-linecap:butt;stroke-linejoin:miter;stroke-opacity:1" />
          </g>
          <g
             style="fill:#424242;fill-opacity:1"
             transform="matrix(-0.0110957,0.0110957,-0.0110957,-0.0110957,32.829126,1410.3861)"
             id="g4716">
            <path
               style="fill:#424242;fill-opacity:1;stroke:none;stroke-width:1px;stroke-linecap:butt;stroke-linejoin:miter;stroke-opacity:1"
               d="m 912,514.59999 -144,-577 -144,577 144,144 z"
               id="path4714"
               inkscape:connector-curvature="0"
               sodipodi:nodetypes="ccccc" />
          </g>
        </g>
      </g>
      <circle
         r="10"
         style="fill:#ffffff;fill-opacity:1;stroke:none;stroke-width:15.74225235;stroke-miterlimit:4;stroke-dasharray:none;stroke-opacity:1"
         id="circle5887"
         cx="50"
         cy="1410.6" />
      <path
         id="path4691"
         d="m 51.009766,1395.6352 0.255859,1.0293 a 14,14 0 0 1 12.669922,12.6699 l 1.013672,0.2539 a 15,15 0 0 0 -13.939453,-13.9531 z m 13.9375,15.9785 -1.03125,0.2578 a 14,14 0 0 1 -12.648438,12.6601 l -0.255859,1.0176 a 15,15 0 0 0 13.935547,-13.9355 z"
         style="fill:#424242;fill-opacity:1;stroke:none;stroke-width:15.40857029;stroke-miterlimit:4;stroke-dasharray:none;stroke-opacity:1"
         inkscape:connector-curvature="0" />
      <circle
         r="9"
         cy="1410.6"
         cx="50"
         id="path5885"
         style="fill:#bdbdbd;fill-opacity:1;stroke:none;stroke-width:14.41958046;stroke-miterlimit:4;stroke-dasharray:none;stroke-opacity:1" />
      <circle
         r="8"
         cy="1410.6"
         cx="50"
         id="path4754"
         style="fill:#ffffff;fill-opacity:1;stroke:none;stroke-width:12.5938015;stroke-miterlimit:4;stroke-dasharray:none;stroke-opacity:1" />
      <g
         style="fill:#424242;fill-opacity:1;stroke:#424242;stroke-width:9.21277523;stroke-miterlimit:4;stroke-dasharray:none;stroke-opacity:1"
         transform="matrix(0.02713623,0,0,0.02713623,48.977128,1373.2433)"
         id="g5743">
        <text
           xml:space="preserve"
           style="font-style:normal;font-weight:normal;font-size:40px;line-height:1.25;font-family:sans-serif;letter-spacing:0px;word-spacing:0px;fill:#424242;fill-opacity:1;stroke:#424242;stroke-width:9.21277523;stroke-miterlimit:4;stroke-dasharray:none;stroke-opacity:1"
           x="-156.49165"
           y="1507.933"
           id="text12"><tspan
             sodipodi:role="line"
             id="tspan10"
             x="-156.49165"
             y="1507.933"
             style="font-style:normal;font-variant:normal;font-weight:normal;font-stretch:normal;font-size:386.66665649px;font-family:DragonForcE;-inkscape-font-specification:DragonForcE;letter-spacing:-88.79994965px;fill:#424242;fill-opacity:1;stroke:#424242;stroke-width:9.21277523;stroke-miterlimit:4;stroke-dasharray:none;stroke-opacity:1"
             dx="0">V</tspan></text>
        <text
           id="text4513"
           y="1507.933"
           x="-48.491539"
           style="font-style:normal;font-weight:normal;font-size:40px;line-height:1.25;font-family:sans-serif;letter-spacing:0px;word-spacing:0px;fill:#424242;fill-opacity:1;stroke:#424242;stroke-width:9.21277523;stroke-miterlimit:4;stroke-dasharray:none;stroke-opacity:1"
           xml:space="preserve"><tspan
             dx="0"
             style="font-style:normal;font-variant:normal;font-weight:normal;font-stretch:normal;font-size:386.66665649px;font-family:DragonForcE;-inkscape-font-specification:DragonForcE;letter-spacing:-88.79994965px;fill:#424242;fill-opacity:1;stroke:#424242;stroke-width:9.21277523;stroke-miterlimit:4;stroke-dasharray:none;stroke-opacity:1"
             y="1507.933"
             x="-48.491539"
             id="tspan4511"
             sodipodi:role="line">V</tspan></text>
      </g>
      <path
         id="circle5891"
         d="m 50,1398.6 a 12,12 0 0 0 -12,12 12,12 0 0 0 12,12 v -1 a 11,11 0 0 1 -11,-11 11,11 0 0 1 11,-11 z"
         style="fill:#424242;fill-opacity:1;stroke:none;stroke-width:19.22610855;stroke-miterlimit:4;stroke-dasharray:none;stroke-opacity:1"
         inkscape:connector-curvature="0" />
    </g>
    <g
       id="g5311">
      <path
         inkscape:connector-curvature="0"
         id="circle6041"
         d="m -19.363841,1.0629 a 15,15 0 0 0 -0.416016,0.021484 l 0.539063,0.9433594 V 1.0629 a 15,15 0 0 0 -0.123047,0 z m -1.626953,0.095703 a 15,15 0 0 0 -13.267578,13.267578 l 1.644531,-0.939453 A 13.5,13.5 0 0 1 -21.940013,2.8109469 Z"
         style="fill:#424242;fill-opacity:1;stroke:none;stroke-width:24.03263474;stroke-miterlimit:4;stroke-dasharray:none;stroke-opacity:1" />
      <path
         inkscape:connector-curvature="0"
         id="circle6037"
         d="m -15.75056,4.6351656 1.212891,2.1230469 a 10.5,10.5 0 0 1 0.480469,0.28125 l 1.923828,-0.5273437 A 12,12 0 0 0 -15.75056,4.6351656 Z m 5.939453,4.2167969 -0.517578,1.9023435 a 10.5,10.5 0 0 1 0.275391,0.484375 l 2.125,1.216797 A 12,12 0 0 0 -9.811107,8.8519625 Z"
         style="fill:#424242;fill-opacity:1;stroke:none;stroke-width:19.22610664;stroke-miterlimit:4;stroke-dasharray:none;stroke-opacity:1" />
      <circle
         style="fill:#424242;fill-opacity:1;stroke:none;stroke-width:14.41958046;stroke-miterlimit:4;stroke-dasharray:none;stroke-opacity:1"
         id="circle6027"
         cx="-19.364201"
         cy="16.063364"
         r="9" />
      <circle
         r="7.5"
         style="fill:#fbfbfb;fill-opacity:1;stroke:none;stroke-width:11.80668926;stroke-miterlimit:4;stroke-dasharray:none;stroke-opacity:1"
         id="circle6029"
         cx="-19.364201"
         cy="16.063364" />
      <g
         id="g5953"
         transform="matrix(0.02713623,0,0,0.02713623,-20.386713,-21.1793)"
         style="fill:#424242;fill-opacity:1;stroke:#424242;stroke-width:9.21277523;stroke-miterlimit:4;stroke-dasharray:none;stroke-opacity:1">
        <text
           id="text5947"
           y="1507.933"
           x="-156.49165"
           style="font-style:normal;font-weight:normal;font-size:40px;line-height:1.25;font-family:sans-serif;letter-spacing:0px;word-spacing:0px;fill:#424242;fill-opacity:1;stroke:#424242;stroke-width:9.21277523;stroke-miterlimit:4;stroke-dasharray:none;stroke-opacity:1"
           xml:space="preserve"><tspan
             dx="0"
             style="font-style:normal;font-variant:normal;font-weight:normal;font-stretch:normal;font-size:386.66665649px;font-family:DragonForcE;-inkscape-font-specification:DragonForcE;letter-spacing:-88.79994965px;fill:#424242;fill-opacity:1;stroke:#424242;stroke-width:9.21277523;stroke-miterlimit:4;stroke-dasharray:none;stroke-opacity:1"
             y="1507.933"
             x="-156.49165"
             id="tspan5945"
             sodipodi:role="line">V</tspan></text>
        <text
           xml:space="preserve"
           style="font-style:normal;font-weight:normal;font-size:40px;line-height:1.25;font-family:sans-serif;letter-spacing:0px;word-spacing:0px;fill:#424242;fill-opacity:1;stroke:#424242;stroke-width:9.21277523;stroke-miterlimit:4;stroke-dasharray:none;stroke-opacity:1"
           x="-48.491539"
           y="1507.933"
           id="text5951"><tspan
             sodipodi:role="line"
             id="tspan5949"
             x="-48.491539"
             y="1507.933"
             style="font-style:normal;font-variant:normal;font-weight:normal;font-stretch:normal;font-size:386.66665649px;font-family:DragonForcE;-inkscape-font-specification:DragonForcE;letter-spacing:-88.79994965px;fill:#424242;fill-opacity:1;stroke:#424242;stroke-width:9.21277523;stroke-miterlimit:4;stroke-dasharray:none;stroke-opacity:1"
             dx="0">V</tspan></text>
      </g>
      <path
         inkscape:connector-curvature="0"
         id="rect6065"
         d="m -19.363842,0.0629 -3.884757,6.7969 a 10,10 0 0 1 3.884729,-0.797 10,10 0 0 1 3.874999,0.7813 z"
         style="fill:#424242;fill-opacity:1;stroke:none;stroke-width:0.25762391;stroke-miterlimit:4;stroke-dasharray:none;stroke-opacity:1" />
      <path
         inkscape:connector-curvature="0"
         id="rect6053"
         d="m -15.481001,25.268 a 10,10 0 0 1 -3.882824,0.7949 10,10 0 0 1 -3.877006,-0.7833 l 3.876978,6.7833 z"
         style="fill:#424242;fill-opacity:1;stroke:none;stroke-width:0.25762391;stroke-miterlimit:4;stroke-dasharray:none;stroke-opacity:1" />
      <path
         inkscape:connector-curvature="0"
         id="rect6071"
         d="m -28.582612,12.1878 -6.781229,3.8751 6.794919,3.8848 a 10,10 0 0 1 -0.794948,-3.8849 10,10 0 0 1 0.781258,-3.875 z"
         style="fill:#424242;fill-opacity:1;stroke:none;stroke-width:0.25762391;stroke-miterlimit:4;stroke-dasharray:none;stroke-opacity:1" />
      <path
         inkscape:connector-curvature="0"
         id="rect6073"
         d="m -10.158783,12.18 a 10,10 0 0 1 0.794959,3.8829 10,10 0 0 1 -0.783236,3.877 l 6.783206,-3.877 z"
         style="fill:#424242;fill-opacity:1;stroke:none;stroke-width:0.25762391;stroke-miterlimit:4;stroke-dasharray:none;stroke-opacity:1" />
      <path
         inkscape:connector-curvature="0"
         id="rect6061"
         d="m -11.137304,21.7445 a 10,10 0 0 1 -2.571968,2.555 l 3.531218,0.9629 z"
         style="fill:#424242;fill-opacity:1;stroke:none;stroke-width:0.24152264;stroke-miterlimit:4;stroke-dasharray:none;stroke-opacity:1" />
      <path
         inkscape:connector-curvature="0"
         id="rect6091"
         d="m -28.557215,6.8715 0.960935,3.5176 a 10,10 0 0 1 2.570284,-2.5548 z"
         style="fill:#424242;fill-opacity:1;stroke:none;stroke-width:0.24152264;stroke-miterlimit:4;stroke-dasharray:none;stroke-opacity:1" />
      <path
         inkscape:connector-curvature="0"
         id="rect6537"
         d="m -27.59824,21.7191 -0.964815,3.5372 3.525412,-0.9609 a 10,10 0 0 1 -2.560597,-2.5763 z"
         style="fill:#424242;fill-opacity:1;stroke:none;stroke-width:0.24152264;stroke-miterlimit:4;stroke-dasharray:none;stroke-opacity:1" />
      <path
         inkscape:connector-curvature="0"
         id="rect6539"
         d="m -10.172424,6.8774 -3.513654,0.959 a 10,10 0 0 1 2.552655,2.5664 z"
         style="fill:#424242;fill-opacity:1;stroke:none;stroke-width:0.24152264;stroke-miterlimit:4;stroke-dasharray:none;stroke-opacity:1" />
      <path
         inkscape:connector-curvature="0"
         id="path6887"
         d="m -7.953685,19.685947 -2.099609,1.201172 a 10.5,10.5 0 0 1 -0.283203,0.490234 l 0.519531,1.908203 a 12,12 0 0 0 1.863281,-3.599609 z m -6.083984,5.423828 a 10.5,10.5 0 0 1 -0.521484,0.296875 l -1.199219,2.097656 a 12,12 0 0 0 3.59375,-1.882812 z"
         style="fill:#424242;fill-opacity:1;stroke:none;stroke-width:19.22610664;stroke-miterlimit:4;stroke-dasharray:none;stroke-opacity:1" />
      <path
         inkscape:connector-curvature="0"
         id="path6895"
         d="m -34.268138,17.689853 a 15,15 0 0 0 13.271485,13.265625 l -0.945313,-1.654297 A 13.5,13.5 0 0 1 -32.592357,18.646884 Z m 15.027344,12.408203 -0.542969,0.949219 a 15,15 0 0 0 0.419922,0.01563 15,15 0 0 0 0.123047,-0.0098 z"
         style="fill:#424242;fill-opacity:1;stroke:none;stroke-width:24.03263474;stroke-miterlimit:4;stroke-dasharray:none;stroke-opacity:1" />
    </g>
  </g>
</svg>
